# xmcd
#
# Track frame offsets:
#	150
#	16998
#	36771
#	59094
#	79692
#	97890
#	121338
#	141636
#	157209
#	179907
#	198030
#	221553
#	251076
#	279474
#
# Disc length: 4261 seconds
#
# Revision: 1
# Processed by: cddbd v1.5.2PL0 Copyright (c) Steve Scherf et al.
# Submitted via: audiograbber 1.83.01
#
DISCID=d310a30e
DTITLE=Megadeth - Capitol Punishment: The Megadeth Years
DYEAR=2000
DGENRE=Metal
TTITLE0=Kill the King
TTITLE1=Dread and the Fugitive Mind
TTITLE2=Crush 'Em
TTITLE3=Use the Man
TTITLE4=Almost Honest
TTITLE5=Trust
TTITLE6=A Tout le Monde
TTITLE7=Train of Consequences
TTITLE8=Sweating Bullets
TTITLE9=Symphony of Destruction
TTITLE10=Hangar 18
TTITLE11=Holy Wars...The Punishment Due
TTITLE12=In My Darkest Hour
TTITLE13=Peace Sells
EXTD=
EXTT0=
EXTT1=
EXTT2=
EXTT3=
EXTT4=
EXTT5=
EXTT6=
EXTT7=
EXTT8=
EXTT9=
EXTT10=
EXTT11=
EXTT12=
EXTT13=
PLAYORDER=
